<?xml version="1.0" encoding="UTF-8"?>
<svg width="158px" height="14px" viewBox="0 0 158 14" version="1.1" xmlns="http://www.w3.org/2000/svg" xmlns:xlink="http://www.w3.org/1999/xlink">
    <!-- Generator: Sketch 49.3 (51167) - http://www.bohemiancoding.com/sketch -->
    <title>sideband-logo</title>
    <desc>Created with Sketch.</desc>
    <defs>
        <polygon id="path-1" points="0.9917 0.0005 15.0727 0.0005 15.0727 14 0.9917 14"></polygon>
        <polygon id="path-3" points="0.9507 0 16.7517 0 16.7517 13.9995 0.9507 13.9995"></polygon>
        <polygon id="path-5" points="0.92 0.0005 15 0.0005 15 14 0.92 14"></polygon>
        <polygon id="path-7" points="0 0 13.4608 0 13.4608 14 0 14"></polygon>
    </defs>
    <g id="sideband-logo" stroke="none" stroke-width="1" fill="none" fill-rule="evenodd">
        <g id="Page-1">
            <polygon id="Fill-1" fill="#000000" points="21 14 24.026 14 24.026 0 21 0"></polygon>
            <g id="Group-20">
                <g id="Group-4" transform="translate(32.000000, 0.000000)">
                    <mask id="mask-2" fill="white">
                        <use xlink:href="#path-1"></use>
                    </mask>
                    <g id="Clip-3"></g>
                    <path d="M7.2607,11.3345 C8.7047,11.3345 9.2777,11.2505 9.8707,10.9565 C11.0577,10.3275 11.7107,8.9625 11.7107,7.0315 C11.7107,4.9115 10.8997,3.4415 9.4757,2.9385 C8.9617,2.7495 8.3687,2.6865 7.2207,2.6865 L4.0177,2.6865 L4.0177,11.3345 L7.2607,11.3345 Z M0.9917,0.0005 L7.7947,0.0005 C10.1087,0.0005 11.3937,0.3145 12.4817,1.1545 C14.1427,2.4345 15.0727,4.5125 15.0727,6.9055 C15.0727,9.6975 13.8267,12.1105 11.7897,13.2445 C10.8407,13.7695 9.5347,14.0005 7.5177,14.0005 L0.9917,14.0005 L0.9917,0.0005 Z" id="Fill-2" fill="#000000" mask="url(#mask-2)"></path>
                </g>
                <polygon id="Fill-5" fill="#000000" points="54.9775 0 66.8625 0 66.8625 2.687 57.9835 2.687 57.9835 5.541 65.7955 5.541 65.7955 8.039 57.9835 8.039 57.9835 11.313 66.8625 11.313 66.8625 14 54.9775 14"></polygon>
                <path d="M83.3799,11.502 C84.3089,11.502 84.6259,11.46 84.9619,11.314 C85.4569,11.083 85.7919,10.453 85.7919,9.781 C85.7919,9.173 85.5349,8.648 85.1199,8.375 C84.7639,8.165 84.3089,8.081 83.3999,8.081 L78.9689,8.081 L78.9689,11.502 L83.3799,11.502 Z M83.0039,5.688 C84.5469,5.688 85.2189,5.205 85.2189,4.114 C85.2189,3.568 84.9619,3.043 84.5669,2.792 C84.2299,2.582 83.8349,2.498 83.0239,2.498 L78.9689,2.498 L78.9689,5.688 L83.0039,5.688 Z M75.9639,0 L84.4079,0 C85.7529,0 86.6429,0.231 87.3159,0.777 C88.0669,1.406 88.5419,2.477 88.5419,3.61 C88.5419,5.016 87.9279,5.961 86.5839,6.653 C87.4339,6.906 87.7899,7.073 88.1659,7.409 C88.7979,7.934 89.1539,8.837 89.1539,9.886 C89.1539,11.272 88.5609,12.531 87.5719,13.223 C86.7409,13.79 85.8329,14 84.2499,14 L75.9639,14 L75.9639,0 Z" id="Fill-7" fill="#000000"></path>
                <g id="Group-11" transform="translate(95.000000, 0.000000)">
                    <mask id="mask-4" fill="white">
                        <use xlink:href="#path-3"></use>
                    </mask>
                    <g id="Clip-10"></g>
                    <path d="M10.7007,8.3745 L8.6637,3.7145 L6.6867,8.3745 L10.7007,8.3745 Z M7.2797,-0.0005 L10.2857,-0.0005 L16.7517,13.9995 L13.1727,13.9995 L11.7687,10.8525 L5.5987,10.8525 L4.2537,13.9995 L0.9507,13.9995 L7.2797,-0.0005 Z" id="Fill-9" fill="#000000" mask="url(#mask-4)"></path>
                </g>
                <polygon id="Fill-12" fill="#000000" points="119.9351 0 123.2771 0 130.6141 9.487 130.6141 0 133.5411 0 133.5411 14 130.2181 14 122.8621 4.513 122.8621 14 119.9351 14"></polygon>
                <g id="Group-16" transform="translate(142.000000, 0.000000)">
                    <mask id="mask-6" fill="white">
                        <use xlink:href="#path-5"></use>
                    </mask>
                    <g id="Clip-15"></g>
                    <path d="M7.189,11.3345 C8.632,11.3345 9.207,11.2505 9.799,10.9565 C10.986,10.3275 11.639,8.9625 11.639,7.0315 C11.639,4.9115 10.828,3.4415 9.404,2.9385 C8.889,2.7495 8.296,2.6865 7.149,2.6865 L3.946,2.6865 L3.946,11.3345 L7.189,11.3345 Z M0.92,0.0005 L7.723,0.0005 C10.037,0.0005 11.322,0.3145 12.41,1.1545 C14.071,2.4345 15,4.5125 15,6.9055 C15,9.6975 13.754,12.1105 11.718,13.2445 C10.768,13.7695 9.463,14.0005 7.446,14.0005 L0.92,14.0005 L0.92,0.0005 Z" id="Fill-14" fill="#000000" mask="url(#mask-6)"></path>
                </g>
                <g id="Group-19">
                    <mask id="mask-8" fill="white">
                        <use xlink:href="#path-7"></use>
                    </mask>
                    <g id="Clip-18"></g>
                    <path d="M6.6328,14 C10.9718,14 13.4608,12.377 13.4608,9.547 C13.4608,8.391 12.9628,7.377 12.1298,6.834 C11.3298,6.308 10.4408,6.062 7.8058,5.64 L7.7028,5.623 C5.5418,5.273 5.0288,5.189 4.4598,5.027 C3.7178,4.803 3.3738,4.401 3.3738,3.763 C3.3738,3.054 3.9148,2.209 6.4908,2.209 C8.4718,2.209 9.4308,2.757 9.6658,4.035 L12.9218,4.035 C12.8398,3.024 12.5058,2.324 11.7598,1.578 C10.7168,0.516 8.9998,0 6.5108,0 C2.4358,0 0.1908,1.488 0.1908,4.189 C0.1908,5.348 0.6968,6.321 1.5788,6.859 C2.4818,7.4 2.9278,7.515 5.9258,7.975 C9.2068,8.488 10.0948,8.79 10.0948,9.933 C10.0948,11.127 8.9658,11.812 6.9978,11.812 C4.6958,11.812 3.5258,11.031 3.3278,9.355 L-0.0002,9.355 C0.2618,12.438 2.4928,14 6.6328,14" id="Fill-17" fill="#000000" mask="url(#mask-8)"></path>
                </g>
            </g>
        </g>
    </g>
</svg>