<?xml version="1.0" encoding="UTF-8"?>
<svg width="200px" height="14px" viewBox="0 0 200 14" version="1.1" xmlns="http://www.w3.org/2000/svg" xmlns:xlink="http://www.w3.org/1999/xlink">
    <!-- Generator: Sketch 49.3 (51167) - http://www.bohemiancoding.com/sketch -->
    <title>sideband-logo</title>
    <desc>Created with Sketch.</desc>
    <defs></defs>
    <g id="sideband-logo" stroke="none" stroke-width="1" fill="none" fill-rule="evenodd">
        <path d="M13.5114286,6.853 C14.4435714,7.39375 15,8.40385 15,9.55465 C15,12.3795 12.2028571,14 7.32535714,14 C3.07178571,14 0.617142857,12.6924 0,10.11745 L3.015,9.52595 C3.4275,10.96655 5.24571429,11.57905 7.87892857,11.57905 C10.2042857,11.57905 11.7367857,10.79015 11.7367857,9.7286 C11.7367857,8.46545 10.3407143,8.372 6.63357143,7.8554 C3.25785714,7.3941 2.65142857,7.38045 1.63714286,6.83865 C0.650714286,6.3042 0.085,5.3354 0.085,4.18075 C0.085,1.4847 2.6075,0 7.18821429,0 C9.98928571,0 11.9196429,0.51625 13.0921429,1.57955 C13.7907143,2.2015 14.1639286,2.79335 14.3221429,3.55845 L10.9614286,3.89165 C10.5692857,2.77795 9.03892857,2.4717 7.16535714,2.4717 C4.82321429,2.4717 3.14285714,2.69395 3.14285714,3.93155 C3.14285714,4.58325 3.90785714,4.87795 4.87464286,5.04175 C5.52964286,5.15305 6.10285714,5.28955 8.56392857,5.6448 L8.64535714,5.65635 C11.6117857,6.07985 12.6121429,6.3259 13.5114286,6.853 Z M28,0 L31,0 L31,14 L28,14 L28,0 Z M57.2157223,1.1494 L57.0388509,1.1494 C58.8080972,2.4171 60,4.51395 60,6.9027 C60,9.69045 58.6489777,12.1205 56.4745659,13.2454 C55.4581228,13.76725 53.85329,14 51.6679374,14 L45,14 L45,0 L51.9732232,0 C54.4973903,0 56.0471657,0.31115 57.2157223,1.1494 Z M51.3733771,11.6179 C52.9914822,11.6179 53.935203,11.52725 54.6223484,11.2119 C55.9994742,10.5357 56.7578502,9.051 56.7578502,7.03255 C56.7578502,4.8006 55.8112977,3.2109 54.1630702,2.6712 C53.5818848,2.47345 52.6349746,2.40345 51.3297882,2.40345 L47.95785,2.40345 L47.95785,11.6179 L51.3733771,11.6179 Z M87,2.40345 L76.9249499,2.40345 L76.9249499,5.6798 L85,5.6798 L85,7.8897 L76.9249499,7.8897 L76.9249499,11.59655 L87,11.59655 L87,14 L74,14 L74,0 L87,0 L87,2.40345 Z M113.359288,13.23175 C112.487788,13.7921 111.534038,14 109.839338,14 L100.999738,14 L100.999738,0 L110.011538,0 C111.457038,0 112.371238,0.2275 113.065638,0.75845 C113.847538,1.37515 114.332988,2.43565 114.332988,3.52555 C114.332988,4.8923 113.706488,5.8058 112.301938,6.4876 L111.885788,6.68955 L112.331338,6.8138 C113.232588,7.06545 113.603938,7.2317 113.991738,7.55755 C114.632238,8.0584 115.000088,8.9334 115.000088,9.95855 C115.000088,11.3302 114.385838,12.5545 113.359288,13.23175 Z M104,2.2099 L104,5.7099 L108.724406,5.7099 C109.872901,5.7099 111.4,5.53058632 111.4,3.98036883 C111.4,3.37679222 111.076828,2.80535674 110.575403,2.52488308 C110.152235,2.29211363 109.673998,2.2099 108.746869,2.2099 L104,2.2099 Z M104,11.7901 L109.118218,11.7901 C110.170104,11.7901 110.548351,11.74775 110.962261,11.5815 C111.572859,11.3204 111.999738,10.6085 111.999738,9.85075 C111.999738,9.1707 111.686333,8.5764 111.153906,8.25615 C110.717661,8.02025 110.171545,7.93275 109.140192,7.93275 L104,7.93275 L104,11.7901 Z M133.848,0 L137.152,0 L144,14 L140.506,14 L139.345,11.5 L131.656,11.5 L130.494,14 L127,14 L133.848,0 Z M135.5,3.215 L132.816,9 L138.185,9 L135.5,3.215 Z M171,14 L167.516071,14 L158.941786,3.962 L158.941786,14 L156,14 L156,0 L159.506429,0 L168.058214,10.0387 L168.058214,0 L171,0 L171,14 Z M197.215722,1.1494 L197.038851,1.1494 C198.808097,2.4171 200,4.51395 200,6.9027 C200,9.69045 198.648978,12.1205 196.474566,13.2454 C195.458123,13.76725 193.85329,14 191.667937,14 L185,14 L185,0 L191.973223,0 C194.49739,0 196.047166,0.31115 197.215722,1.1494 Z M191.373377,11.6179 C192.991482,11.6179 193.935203,11.52725 194.622348,11.2119 C195.999474,10.5357 196.75785,9.051 196.75785,7.03255 C196.75785,4.8006 195.811298,3.2109 194.16307,2.6712 C193.581885,2.47345 192.634975,2.40345 191.329788,2.40345 L187.95785,2.40345 L187.95785,11.6179 L191.373377,11.6179 Z" fill="#000000"></path>
    </g>
</svg>